<svg id="Layer_1" data-name="Layer 1" xmlns="http://www.w3.org/2000/svg" viewBox="0 0 496 422"><defs><style>.cls-1{fill:#fefdfd;}.cls-2{fill:#fdfbfb;}.cls-3{fill:#5f2a77;}.cls-4{fill:#602a77;}.cls-5{fill:#612b78;}.cls-6{fill:#874b9b;}.cls-7{fill:#802835;}</style></defs><path class="cls-1" d="M126,0h27c4.74.9,9.45,2.05,14.23,2.66,17,2.18,32.85,7.81,46.64,17.82,10.47,7.61,20,16.58,29.57,25.34,4.68,4.27,4.48,4.67,8.6.16,2.66-2.92,5.22-5.94,8-8.7C283.63,14.17,312.43,3.22,344.9.87h26.2c11.41,1.84,23.17,2.51,34.17,5.77,19.76,5.86,37.46,15.88,52.12,30.8A126,126,0,0,1,491.66,103c3.17,16.33,3.59,32.92,2.25,49.64-1.42,17.71-4.72,34.86-12.4,50.86-6.67,13.92-14.44,27.31-21.47,41.07-2.45,4.78-6.14,6.59-11.16,6.57-2.32-.13-4.64-.37-7-.37-28.48.09-57,.14-85.44.4-4.11,0-6.79-1.51-8.18-5.06s-2.15-7.27-3.35-10.87-2.53-6.93-4.23-11.51l-6.58,10.46-14.26-45-1.74-.09L303,258c-4.77-5.32-8.83-9.85-13.11-14.64a33.67,33.67,0,0,0-1.78,4c-5.7,19.27-11.31,38.56-17.06,57.81-.61,2.07-1.93,3.93-2.92,5.89-2-1.69-2.87-3-3.1-4.34q-3.51-21.3-6.84-42.65c-2-12.45-3.77-24.93-5.77-37.38-2.35-14.55-4.94-29.07-7.24-43.63-2-12.61-3.61-25.28-5.59-37.89-3.47-22.11-7.08-44.19-10.7-66.27a52.4,52.4,0,0,0-1.86-6.4c-5.85,28.91-11,57.63-15.74,86.42-4.7,28.61-9,57.27-14.34,85.76h-1.84l-9.16-14.8c-2.38,4.59-4.26,8.05-6,11.58-8.52,17.62-8.51,17.4-28.1,17.69-26.59.39-53.16,1.18-79.74,1.8l-13,.29c-6,.36-9.84-2.83-13-7.49C41.51,246.76,36.64,240,32,233,16,208.82,7.37,182.12,5.44,153.27A153.3,153.3,0,0,1,26,64.77C44.17,33.15,71.22,13.14,106.47,4.12,112.91,2.48,119.49,1.36,126,0Z" transform="translate(0 0)"/><path class="cls-2" d="M249,422h-9c-3-1.6-6.13-3-8.92-4.84Q211,403.72,191.16,390c-24.45-16.89-48.09-34.91-69.86-55.12-15.71-14.58-30.19-30.49-45-46-6.21-6.48-11.94-13.43-17.85-20.2-2.46-2.81-1.61-4.37,1.94-4.78,34.81.05,69.63-.21,104.44.35,9.19.15,14.79-2.92,18.29-11.1,1-2.38,3-4.37,5.06-7.37,4.21,8.74,7.81,16.22,11.42,23.7a235.26,235.26,0,0,0,6.13-27.74c2.1-12.59,3.93-25.23,6-37.82,2.3-13.89,4.87-27.73,7.14-41.62,2.33-14.24,4.4-28.52,6.71-42.77.17-1.07,1.3-2,2-3l1.36.44c5.53,39.54,10.7,79.13,16.69,118.6,5.95,39.22,10.62,78.66,17.55,117.72h2.13l26.21-95.93,12.38,14.49,1.71-1Q308.81,257,312,243c2.2-9.66,4.33-19.34,6.6-29,.21-.89,1.18-1.61,1.8-2.4a8.6,8.6,0,0,1,1.67,2.05c1.68,4.46,3.36,8.93,4.81,13.47,2.39,7.45,4.59,15,7.16,23.39l6-7.57c1.85,4,3.76,7.12,4.75,10.5,1.24,4.25,3.57,5.9,7.94,5.67,5.15-.27,10.32-.05,15.49-.07l76-.23,5.19.87c-4,5.14-7.42,9.88-11.14,14.39a434.82,434.82,0,0,1-61.83,61.68c-22.35,18.06-45.47,35.2-68.77,52C289.24,401.07,270,413.1,249,422Z" transform="translate(0 0)"/><path class="cls-3" d="M60.37,263.93c-3.55.41-4.4,2-1.94,4.78,5.91,6.77,11.64,13.72,17.85,20.2,14.83,15.51,29.31,31.42,45,46,21.77,20.21,45.41,38.23,69.86,55.12q19.86,13.73,39.92,27.13C233.87,419,237,420.4,240,422H0V0H126c-6.51,1.36-13.09,2.48-19.53,4.12-35.25,9-62.3,29-80.51,60.65a153.3,153.3,0,0,0-20.52,88.5C7.37,182.12,16,208.82,32,233c4.62,7,9.49,13.77,14.15,20.7,3.13,4.66,7,7.85,13,7.49Z" transform="translate(0 0)"/><path class="cls-4" d="M249,422c21-8.9,40.24-20.93,58.61-34.2,23.3-16.82,46.42-34,68.77-52a434.82,434.82,0,0,0,61.83-61.68c3.72-4.51,7.17-9.25,11.14-14.39l-5.19-.87q2.35-3.85,4.72-7.72c5,0,8.71-1.79,11.16-6.57,7-13.76,14.8-27.15,21.47-41.07,7.68-16,11-33.15,12.4-50.86,1.34-16.72.92-33.31-2.25-49.64a126,126,0,0,0-34.27-65.53C442.73,22.53,425,12.51,405.27,6.65c-11-3.26-22.76-3.93-34.17-5.77,0-.3-.08-.59-.1-.88H496V422Z" transform="translate(0 0)"/><path class="cls-5" d="M344.9.87c-32.47,2.35-61.27,13.3-84.83,36.41-2.81,2.76-5.37,5.78-8,8.7-4.12,4.51-3.92,4.11-8.6-.16-9.59-8.76-19.1-17.73-29.57-25.34-13.79-10-29.63-15.64-46.64-17.82C162.45,2.05,157.74.9,153,0H345C345,.29,344.94.58,344.9.87Z" transform="translate(0 0)"/><path class="cls-6" d="M344.9.87c0-.29.07-.58.1-.87h26c0,.29.06.58.1.88Z" transform="translate(0 0)"/><path class="cls-7" d="M448.88,251.12q-2.36,3.87-4.72,7.72l-76,.23c-5.17,0-10.34-.2-15.49.07-4.37.23-6.7-1.42-7.94-5.67-1-3.38-2.9-6.49-4.75-10.5l-6,7.57c-2.57-8.43-4.77-15.94-7.16-23.39-1.45-4.54-3.13-9-4.81-13.47a8.6,8.6,0,0,0-1.67-2.05c-.62.79-1.59,1.51-1.8,2.4-2.27,9.65-4.4,19.33-6.6,29Q308.83,257,305.6,270.9l-1.71,1-12.38-14.49L265.3,353.35h-2.13c-6.93-39.06-11.6-78.5-17.55-117.72-6-39.47-11.16-79.06-16.69-118.6l-1.36-.44c-.69,1-1.82,1.89-2,3-2.31,14.25-4.38,28.53-6.71,42.77-2.27,13.89-4.84,27.73-7.14,41.62-2.09,12.59-3.92,25.23-6,37.82a235.26,235.26,0,0,1-6.13,27.74c-3.61-7.48-7.21-15-11.42-23.7-2.09,3-4,5-5.06,7.37-3.5,8.18-9.1,11.25-18.29,11.1-34.81-.56-69.63-.3-104.44-.35l-1.23-2.75,13-.29c26.58-.62,53.15-1.41,79.74-1.8,19.59-.29,19.58-.07,28.1-17.69,1.71-3.53,3.59-7,6-11.58l9.16,14.8h1.84c5.3-28.49,9.64-57.15,14.34-85.76,4.73-28.79,9.89-57.51,15.74-86.42a52.4,52.4,0,0,1,1.86,6.4c3.62,22.08,7.23,44.16,10.7,66.27,2,12.61,3.6,25.28,5.59,37.89,2.3,14.56,4.89,29.08,7.24,43.63,2,12.45,3.81,24.93,5.77,37.38q3.34,21.35,6.84,42.65c.23,1.38,1.1,2.65,3.1,4.34,1-2,2.31-3.82,2.92-5.89,5.75-19.25,11.36-38.54,17.06-57.81a33.67,33.67,0,0,1,1.78-4c4.28,4.79,8.34,9.32,13.11,14.64l15.16-68.91,1.74.09,14.26,45,6.58-10.46c1.7,4.58,3.06,8,4.23,11.51s2,7.35,3.35,10.87,4.07,5.09,8.18,5.06c28.48-.26,57-.31,85.44-.4C444.24,250.75,446.56,251,448.88,251.12Z" transform="translate(0 0)"/></svg>